<svg xmlns="http://www.w3.org/2000/svg" width="1040" height="52" viewBox="0 0 1040 52" role="img" aria-labelledby="title desc">
  <title id="title">DS-Digital typing profile bio</title>
  <desc id="desc">Algorithm engineer, curious about search, ads, recommendations, causal inference, and LLM agents.</desc>
  <defs>
    <clipPath id="typingReveal" clipPathUnits="userSpaceOnUse">
      <rect x="30" y="0" width="0" height="52">
        <animate attributeName="width" values="0;917.68;917.68;0" keyTimes="0;0.72;0.9;1" dur="9.6s" repeatCount="indefinite" />
      </rect>
    </clipPath>
  </defs>
  <g fill="#111111" clip-path="url(#typingReveal)" transform="translate(30 38) scale(0.02000000 -0.02000000)">
      <path d="M465 700 391 625H148L74 700ZM135 289V75L60 0V307L88 336ZM60 392V686L135 611V411L88 364ZM479 307V0L405 75V289L452 336ZM405 411V611L479 686V392L452 364ZM400 387 438 350 400 313H139L102 350L139 387Z" transform="translate(0 0)" />
      <path d="M479 0H74L148 75H405ZM135 289V89L60 14V307L88 336ZM60 392V700L135 625V411L88 364Z" transform="translate(539 0)" />
      <path d="M465 700 391 625H148L111 663L148 700ZM438 350 400 313H316L279 350L316 387H400ZM135 411 88 364 60 392V611L97 649L135 611ZM135 89 97 51 60 89V307L88 336L135 289ZM391 0 428 37 391 75H148L111 37L148 0ZM479 89 442 51 405 89V289L452 336L479 307Z" transform="translate(1078 0)" />
      <path d="M479 392 452 364 405 411V611L442 649L479 611ZM428 663 391 625H148L111 663L148 700H391ZM479 89 442 51 405 89V289L452 336L479 307ZM135 411 88 364 60 392V611L97 649L135 611ZM60 89 97 51 135 89V289L88 336L60 307ZM148 0 111 37 148 75H391L428 37L391 0Z" transform="translate(1617 0)" />
      <path d="M479 392 452 364 405 411V611L442 649L479 611ZM428 663 391 625H148L74 700H391ZM135 411 88 364 60 392V686L135 611ZM135 75 60 0V307L88 336L135 289ZM186 241V294H239L479 53V0H426ZM400 387 438 350 400 313H139L102 350L139 387Z" transform="translate(2156 0)" />
      <path d="M181 392 153 364 106 411V663L143 700L181 663ZM181 37 143 0 106 37V289L153 336L181 307Z" transform="translate(2695 0)" />
      <path d="M479 700 405 625H135L60 700ZM307 37 269 0 232 37V252L279 299L307 271ZM307 354 279 327 232 373V574L269 611L307 574Z" transform="translate(2982 0)" />
      <path d="M135 289V75L60 0V307L88 336ZM60 392V700L135 625V411L88 364ZM479 307V0L405 75V289L452 336ZM405 411V625L479 700V392L452 364ZM400 387 438 350 400 313H139L102 350L139 387Z" transform="translate(3521 0)" />
      <path d="M465 700 391 625H148L74 700ZM135 289V75L60 0V307L88 336ZM60 392V686L135 611V411L88 364ZM479 307V0L405 75V289L452 336ZM405 411V611L479 686V392L452 364ZM232 569 269 606 307 569V402L269 364L232 402Z" transform="translate(4060 0)" />
      <path d="M479 700 405 625H148L74 700ZM479 0H74L148 75H405ZM135 289V89L60 14V307L88 336ZM60 392V686L135 611V411L88 364ZM400 387 438 350 400 313H139L102 350L139 387Z" transform="translate(4859 0)" />
      <path d="M135 289V75L60 0V307L88 336ZM60 392V700L135 625V411L88 364ZM479 307V0L405 75V289L452 336ZM405 411V625L479 700V392L452 364ZM152 571V625H205L387 443V390H334Z" transform="translate(5398 0)" />
      <path d="M465 700 391 625H148L111 663L148 700ZM438 350 400 313H316L279 350L316 387H400ZM135 411 88 364 60 392V611L97 649L135 611ZM135 89 97 51 60 89V307L88 336L135 289ZM391 0 428 37 391 75H148L111 37L148 0ZM479 89 442 51 405 89V289L452 336L479 307Z" transform="translate(5937 0)" />
      <path d="M181 392 153 364 106 411V663L143 700L181 663ZM181 37 143 0 106 37V289L153 336L181 307Z" transform="translate(6476 0)" />
      <path d="M135 289V75L60 0V307L88 336ZM60 392V700L135 625V411L88 364ZM479 307V0L405 75V289L452 336ZM405 411V625L479 700V392L452 364ZM152 571V625H205L387 443V390H334Z" transform="translate(6763 0)" />
      <path d="M479 700 405 625H148L74 700ZM479 0H74L148 75H405ZM135 289V89L60 14V307L88 336ZM60 392V686L135 611V411L88 364ZM400 387 438 350 400 313H139L102 350L139 387Z" transform="translate(7302 0)" />
      <path d="M479 700 405 625H148L74 700ZM479 0H74L148 75H405ZM135 289V89L60 14V307L88 336ZM60 392V686L135 611V411L88 364ZM400 387 438 350 400 313H139L102 350L139 387Z" transform="translate(7841 0)" />
      <path d="M479 392 452 364 405 411V611L442 649L479 611ZM428 663 391 625H148L74 700H391ZM135 411 88 364 60 392V686L135 611ZM135 75 60 0V307L88 336L135 289ZM186 241V294H239L479 53V0H426ZM400 387 438 350 400 313H139L102 350L139 387Z" transform="translate(8380 0)" />
      <path d="M135 -79 97 -116 60 -79V75H135Z" transform="translate(8919 0)" />
      <path d="M479 700 405 625H148L111 663L148 700ZM135 411 88 364 60 392V611L97 649L135 611ZM479 0H148L111 37L148 75H405ZM135 89 97 51 60 89V307L88 336L135 289Z" transform="translate(9373 0)" />
      <path d="M479 89 442 51 405 89V289L452 336L479 307ZM60 89 97 51 135 89V289L88 336L60 307ZM148 0 111 37 148 75H391L428 37L391 0ZM60 392V700L135 625V411L88 364ZM405 411V625L479 700V392L452 364Z" transform="translate(9912 0)" />
      <path d="M479 392 452 364 405 411V611L442 649L479 611ZM428 663 391 625H148L74 700H391ZM135 411 88 364 60 392V686L135 611ZM135 75 60 0V307L88 336L135 289ZM186 241V294H239L479 53V0H426ZM400 387 438 350 400 313H139L102 350L139 387Z" transform="translate(10451 0)" />
      <path d="M181 392 153 364 106 411V663L143 700L181 663ZM181 37 143 0 106 37V289L153 336L181 307Z" transform="translate(10990 0)" />
      <path d="M479 392 452 364 405 411V611L442 649L479 611ZM428 663 391 625H148L111 663L148 700H391ZM479 89 442 51 405 89V289L452 336L479 307ZM135 411 88 364 60 392V611L97 649L135 611ZM60 89 97 51 135 89V289L88 336L60 307ZM148 0 111 37 148 75H391L428 37L391 0Z" transform="translate(11277 0)" />
      <path d="M479 89 442 51 405 89V289L452 336L479 307ZM60 89 97 51 135 89V289L88 336L60 307ZM148 0 111 37 148 75H391L428 37L391 0ZM60 392V700L135 625V411L88 364ZM405 411V625L479 700V392L452 364Z" transform="translate(11816 0)" />
      <path d="M479 663 442 625H148L111 663L148 700H442ZM479 89 442 51 405 89V289L452 336L479 307ZM135 411 88 364 60 392V611L97 649L135 611ZM97 0 60 37 97 75H391L428 37L391 0ZM400 387 438 350 400 313H139L102 350L139 387Z" transform="translate(12355 0)" />
      <path d="M465 700 391 625H148L74 700ZM135 289V75L60 0V307L88 336ZM60 392V686L135 611V411L88 364ZM479 307V0L405 75V289L452 336ZM405 411V611L479 686V392L452 364ZM400 387 438 350 400 313H139L102 350L139 387Z" transform="translate(13154 0)" />
      <path d="M479 89 442 51 405 89V289L452 336L479 307ZM479 392 452 364 405 411V611L442 649L479 611ZM428 663 391 625H148L74 700H391ZM428 37 391 0H74L148 75H391ZM135 411 88 364 60 392V686L135 611ZM135 89 60 14V307L88 336L135 289ZM400 387 438 350 400 313H139L102 350L139 387Z" transform="translate(13693 0)" />
      <path d="M479 392 452 364 405 411V611L442 649L479 611ZM428 663 391 625H148L111 663L148 700H391ZM479 89 442 51 405 89V289L452 336L479 307ZM135 411 88 364 60 392V611L97 649L135 611ZM60 89 97 51 135 89V289L88 336L60 307ZM148 0 111 37 148 75H391L428 37L391 0Z" transform="translate(14232 0)" />
      <path d="M479 89 442 51 405 89V289L452 336L479 307ZM60 89 97 51 135 89V289L88 336L60 307ZM148 0 111 37 148 75H391L428 37L391 0ZM60 392V700L135 625V411L88 364ZM405 411V625L479 700V392L452 364Z" transform="translate(14771 0)" />
      <path d="M479 700 405 625H135L60 700ZM307 37 269 0 232 37V252L279 299L307 271ZM307 354 279 327 232 373V574L269 611L307 574Z" transform="translate(15310 0)" />
      <path d="M479 663 442 625H148L111 663L148 700H442ZM479 89 442 51 405 89V289L452 336L479 307ZM135 411 88 364 60 392V611L97 649L135 611ZM97 0 60 37 97 75H391L428 37L391 0ZM400 387 438 350 400 313H139L102 350L139 387Z" transform="translate(16109 0)" />
      <path d="M479 700 405 625H148L74 700ZM479 0H74L148 75H405ZM135 289V89L60 14V307L88 336ZM60 392V686L135 611V411L88 364ZM400 387 438 350 400 313H139L102 350L139 387Z" transform="translate(16648 0)" />
      <path d="M465 700 391 625H148L74 700ZM135 289V75L60 0V307L88 336ZM60 392V686L135 611V411L88 364ZM479 307V0L405 75V289L452 336ZM405 411V611L479 686V392L452 364ZM400 387 438 350 400 313H139L102 350L139 387Z" transform="translate(17187 0)" />
      <path d="M479 392 452 364 405 411V611L442 649L479 611ZM428 663 391 625H148L74 700H391ZM135 411 88 364 60 392V686L135 611ZM135 75 60 0V307L88 336L135 289ZM186 241V294H239L479 53V0H426ZM400 387 438 350 400 313H139L102 350L139 387Z" transform="translate(17726 0)" />
      <path d="M479 700 405 625H148L111 663L148 700ZM135 411 88 364 60 392V611L97 649L135 611ZM479 0H148L111 37L148 75H405ZM135 89 97 51 60 89V307L88 336L135 289Z" transform="translate(18265 0)" />
      <path d="M135 289V75L60 0V307L88 336ZM60 392V700L135 625V411L88 364ZM479 307V0L405 75V289L452 336ZM405 411V625L479 700V392L452 364ZM400 387 438 350 400 313H139L102 350L139 387Z" transform="translate(18804 0)" />
      <path d="M135 -79 97 -116 60 -79V75H135Z" transform="translate(19343 0)" />
      <path d="M465 700 391 625H148L74 700ZM135 289V75L60 0V307L88 336ZM60 392V686L135 611V411L88 364ZM479 307V0L405 75V289L452 336ZM405 411V611L479 686V392L452 364ZM400 387 438 350 400 313H139L102 350L139 387Z" transform="translate(19797 0)" />
      <path d="M479 89 442 51 405 89V289L452 336L479 307ZM479 392 452 364 405 411V611L442 649L479 611ZM428 663 391 625H148L74 700H391ZM428 37 391 0H74L148 75H391ZM135 411 88 364 60 392V686L135 611ZM135 89 60 14V307L88 336L135 289Z" transform="translate(20336 0)" />
      <path d="M479 663 442 625H148L111 663L148 700H442ZM479 89 442 51 405 89V289L452 336L479 307ZM135 411 88 364 60 392V611L97 649L135 611ZM97 0 60 37 97 75H391L428 37L391 0ZM400 387 438 350 400 313H139L102 350L139 387Z" transform="translate(20875 0)" />
      <path d="M135 -79 97 -116 60 -79V75H135Z" transform="translate(21414 0)" />
      <path d="M479 392 452 364 405 411V611L442 649L479 611ZM428 663 391 625H148L74 700H391ZM135 411 88 364 60 392V686L135 611ZM135 75 60 0V307L88 336L135 289ZM186 241V294H239L479 53V0H426ZM400 387 438 350 400 313H139L102 350L139 387Z" transform="translate(21868 0)" />
      <path d="M479 700 405 625H148L74 700ZM479 0H74L148 75H405ZM135 289V89L60 14V307L88 336ZM60 392V686L135 611V411L88 364ZM400 387 438 350 400 313H139L102 350L139 387Z" transform="translate(22407 0)" />
      <path d="M479 700 405 625H148L111 663L148 700ZM135 411 88 364 60 392V611L97 649L135 611ZM479 0H148L111 37L148 75H405ZM135 89 97 51 60 89V307L88 336L135 289Z" transform="translate(22946 0)" />
      <path d="M479 392 452 364 405 411V611L442 649L479 611ZM428 663 391 625H148L111 663L148 700H391ZM479 89 442 51 405 89V289L452 336L479 307ZM135 411 88 364 60 392V611L97 649L135 611ZM60 89 97 51 135 89V289L88 336L60 307ZM148 0 111 37 148 75H391L428 37L391 0Z" transform="translate(23485 0)" />
      <path d="M465 700 391 625H148L74 700ZM135 289V75L60 0V307L88 336ZM60 392V686L135 611V411L88 364ZM479 307V0L405 75V289L452 336ZM405 411V611L479 686V392L452 364ZM232 569 269 606 307 569V402L269 364L232 402Z" transform="translate(24024 0)" />
      <path d="M465 700 391 625H148L74 700ZM135 289V75L60 0V307L88 336ZM60 392V686L135 611V411L88 364ZM479 307V0L405 75V289L452 336ZM405 411V611L479 686V392L452 364ZM232 569 269 606 307 569V402L269 364L232 402Z" transform="translate(24563 0)" />
      <path d="M479 700 405 625H148L74 700ZM479 0H74L148 75H405ZM135 289V89L60 14V307L88 336ZM60 392V686L135 611V411L88 364ZM400 387 438 350 400 313H139L102 350L139 387Z" transform="translate(25102 0)" />
      <path d="M135 289V75L60 0V307L88 336ZM60 392V700L135 625V411L88 364ZM479 307V0L405 75V289L452 336ZM405 411V625L479 700V392L452 364ZM152 571V625H205L387 443V390H334Z" transform="translate(25641 0)" />
      <path d="M479 89 442 51 405 89V289L452 336L479 307ZM479 392 452 364 405 411V611L442 649L479 611ZM428 663 391 625H148L74 700H391ZM428 37 391 0H74L148 75H391ZM135 411 88 364 60 392V686L135 611ZM135 89 60 14V307L88 336L135 289Z" transform="translate(26180 0)" />
      <path d="M465 700 391 625H148L74 700ZM135 289V75L60 0V307L88 336ZM60 392V686L135 611V411L88 364ZM479 307V0L405 75V289L452 336ZM405 411V611L479 686V392L452 364ZM400 387 438 350 400 313H139L102 350L139 387Z" transform="translate(26719 0)" />
      <path d="M479 700 405 625H135L60 700ZM307 37 269 0 232 37V252L279 299L307 271ZM307 354 279 327 232 373V574L269 611L307 574Z" transform="translate(27258 0)" />
      <path d="M181 392 153 364 106 411V663L143 700L181 663ZM181 37 143 0 106 37V289L153 336L181 307Z" transform="translate(27797 0)" />
      <path d="M479 392 452 364 405 411V611L442 649L479 611ZM428 663 391 625H148L111 663L148 700H391ZM479 89 442 51 405 89V289L452 336L479 307ZM135 411 88 364 60 392V611L97 649L135 611ZM60 89 97 51 135 89V289L88 336L60 307ZM148 0 111 37 148 75H391L428 37L391 0Z" transform="translate(28084 0)" />
      <path d="M135 289V75L60 0V307L88 336ZM60 392V700L135 625V411L88 364ZM479 307V0L405 75V289L452 336ZM405 411V625L479 700V392L452 364ZM152 571V625H205L387 443V390H334Z" transform="translate(28623 0)" />
      <path d="M479 663 442 625H148L111 663L148 700H442ZM479 89 442 51 405 89V289L452 336L479 307ZM135 411 88 364 60 392V611L97 649L135 611ZM97 0 60 37 97 75H391L428 37L391 0ZM400 387 438 350 400 313H139L102 350L139 387Z" transform="translate(29162 0)" />
      <path d="M135 -79 97 -116 60 -79V75H135Z" transform="translate(29701 0)" />
      <path d="M479 700 405 625H148L111 663L148 700ZM135 411 88 364 60 392V611L97 649L135 611ZM479 0H148L111 37L148 75H405ZM135 89 97 51 60 89V307L88 336L135 289Z" transform="translate(30155 0)" />
      <path d="M465 700 391 625H148L74 700ZM135 289V75L60 0V307L88 336ZM60 392V686L135 611V411L88 364ZM479 307V0L405 75V289L452 336ZM405 411V611L479 686V392L452 364ZM400 387 438 350 400 313H139L102 350L139 387Z" transform="translate(30694 0)" />
      <path d="M479 89 442 51 405 89V289L452 336L479 307ZM60 89 97 51 135 89V289L88 336L60 307ZM148 0 111 37 148 75H391L428 37L391 0ZM60 392V700L135 625V411L88 364ZM405 411V625L479 700V392L452 364Z" transform="translate(31233 0)" />
      <path d="M479 663 442 625H148L111 663L148 700H442ZM479 89 442 51 405 89V289L452 336L479 307ZM135 411 88 364 60 392V611L97 649L135 611ZM97 0 60 37 97 75H391L428 37L391 0ZM400 387 438 350 400 313H139L102 350L139 387Z" transform="translate(31772 0)" />
      <path d="M465 700 391 625H148L74 700ZM135 289V75L60 0V307L88 336ZM60 392V686L135 611V411L88 364ZM479 307V0L405 75V289L452 336ZM405 411V611L479 686V392L452 364ZM400 387 438 350 400 313H139L102 350L139 387Z" transform="translate(32311 0)" />
      <path d="M479 0H74L148 75H405ZM135 289V89L60 14V307L88 336ZM60 392V700L135 625V411L88 364Z" transform="translate(32850 0)" />
      <path d="M181 392 153 364 106 411V663L143 700L181 663ZM181 37 143 0 106 37V289L153 336L181 307Z" transform="translate(33649 0)" />
      <path d="M135 289V75L60 0V307L88 336ZM60 392V700L135 625V411L88 364ZM479 307V0L405 75V289L452 336ZM405 411V625L479 700V392L452 364ZM152 571V625H205L387 443V390H334Z" transform="translate(33936 0)" />
      <path d="M479 700 405 625H148L74 700ZM135 289V89L60 14V307L88 336ZM60 392V686L135 611V411L88 364ZM400 387 438 350 400 313H139L102 350L139 387Z" transform="translate(34475 0)" />
      <path d="M479 700 405 625H148L74 700ZM479 0H74L148 75H405ZM135 289V89L60 14V307L88 336ZM60 392V686L135 611V411L88 364ZM400 387 438 350 400 313H139L102 350L139 387Z" transform="translate(35014 0)" />
      <path d="M479 392 452 364 405 411V611L442 649L479 611ZM428 663 391 625H148L74 700H391ZM135 411 88 364 60 392V686L135 611ZM135 75 60 0V307L88 336L135 289ZM186 241V294H239L479 53V0H426ZM400 387 438 350 400 313H139L102 350L139 387Z" transform="translate(35553 0)" />
      <path d="M479 700 405 625H148L74 700ZM479 0H74L148 75H405ZM135 289V89L60 14V307L88 336ZM60 392V686L135 611V411L88 364ZM400 387 438 350 400 313H139L102 350L139 387Z" transform="translate(36092 0)" />
      <path d="M135 289V75L60 0V307L88 336ZM60 392V700L135 625V411L88 364ZM479 307V0L405 75V289L452 336ZM405 411V625L479 700V392L452 364ZM152 571V625H205L387 443V390H334Z" transform="translate(36631 0)" />
      <path d="M479 700 405 625H148L111 663L148 700ZM135 411 88 364 60 392V611L97 649L135 611ZM479 0H148L111 37L148 75H405ZM135 89 97 51 60 89V307L88 336L135 289Z" transform="translate(37170 0)" />
      <path d="M479 700 405 625H148L74 700ZM479 0H74L148 75H405ZM135 289V89L60 14V307L88 336ZM60 392V686L135 611V411L88 364ZM400 387 438 350 400 313H139L102 350L139 387Z" transform="translate(37709 0)" />
      <path d="M135 -79 97 -116 60 -79V75H135Z" transform="translate(38248 0)" />
      <path d="M465 700 391 625H148L74 700ZM135 289V75L60 0V307L88 336ZM60 392V686L135 611V411L88 364ZM479 307V0L405 75V289L452 336ZM405 411V611L479 686V392L452 364ZM400 387 438 350 400 313H139L102 350L139 387Z" transform="translate(38702 0)" />
      <path d="M135 289V75L60 0V307L88 336ZM60 392V700L135 625V411L88 364ZM479 307V0L405 75V289L452 336ZM405 411V625L479 700V392L452 364ZM152 571V625H205L387 443V390H334Z" transform="translate(39241 0)" />
      <path d="M479 89 442 51 405 89V289L452 336L479 307ZM479 392 452 364 405 411V611L442 649L479 611ZM428 663 391 625H148L74 700H391ZM428 37 391 0H74L148 75H391ZM135 411 88 364 60 392V686L135 611ZM135 89 60 14V307L88 336L135 289Z" transform="translate(39780 0)" />
      <path d="M479 0H74L148 75H405ZM135 289V89L60 14V307L88 336ZM60 392V700L135 625V411L88 364Z" transform="translate(40579 0)" />
      <path d="M479 0H74L148 75H405ZM135 289V89L60 14V307L88 336ZM60 392V700L135 625V411L88 364Z" transform="translate(41118 0)" />
      <path d="M465 700 391 625H148L74 700ZM135 289V75L60 0V307L88 336ZM60 392V686L135 611V411L88 364ZM479 307V0L405 75V289L452 336ZM405 411V611L479 686V392L452 364ZM232 569 269 606 307 569V402L269 364L232 402Z" transform="translate(41657 0)" />
      <path d="M465 700 391 625H148L74 700ZM135 289V75L60 0V307L88 336ZM60 392V686L135 611V411L88 364ZM479 307V0L405 75V289L452 336ZM405 411V611L479 686V392L452 364ZM400 387 438 350 400 313H139L102 350L139 387Z" transform="translate(42456 0)" />
      <path d="M465 700 391 625H148L111 663L148 700ZM438 350 400 313H316L279 350L316 387H400ZM135 411 88 364 60 392V611L97 649L135 611ZM135 89 97 51 60 89V307L88 336L135 289ZM391 0 428 37 391 75H148L111 37L148 0ZM479 89 442 51 405 89V289L452 336L479 307Z" transform="translate(42995 0)" />
      <path d="M479 700 405 625H148L74 700ZM479 0H74L148 75H405ZM135 289V89L60 14V307L88 336ZM60 392V686L135 611V411L88 364ZM400 387 438 350 400 313H139L102 350L139 387Z" transform="translate(43534 0)" />
      <path d="M135 289V75L60 0V307L88 336ZM60 392V700L135 625V411L88 364ZM479 307V0L405 75V289L452 336ZM405 411V625L479 700V392L452 364ZM152 571V625H205L387 443V390H334Z" transform="translate(44073 0)" />
      <path d="M479 700 405 625H135L60 700ZM307 37 269 0 232 37V252L279 299L307 271ZM307 354 279 327 232 373V574L269 611L307 574Z" transform="translate(44612 0)" />
      <path d="M479 663 442 625H148L111 663L148 700H442ZM479 89 442 51 405 89V289L452 336L479 307ZM135 411 88 364 60 392V611L97 649L135 611ZM97 0 60 37 97 75H391L428 37L391 0ZM400 387 438 350 400 313H139L102 350L139 387Z" transform="translate(45151 0)" />
      <path d="M60 0V75H135V0Z" transform="translate(45690 0)" />
  </g>
  <rect x="30" y="13" width="1.5" height="25" rx="0.75" fill="#111111">
    <animate attributeName="x" values="30;947.68;947.68;30" keyTimes="0;0.72;0.9;1" dur="9.6s" repeatCount="indefinite" />
    <animate attributeName="opacity" values="1;1;0;1" keyTimes="0;0.72;0.86;1" dur="9.6s" repeatCount="indefinite" />
  </rect>
</svg>
